# xmcd
#
# Track frame offsets:
#	150
#	18662
#	27995
#	36932
#	48227
#	59022
#	73515
#	80307
#	92385
#	133205
#	145950
#	160510
#	168600
#	173027
#	176205
#	182515
#	189162
#	194610
#	200450
#	231672
#	247007
#	279780
#	329955
#
# Disc length: 4555 seconds
#
# Revision: 2
# Processed by: cddbd v1.5.1PL0 Copyright (c) Steve Scherf et al.
# Submitted via: audiograbber 1.83.01
#
DISCID=5311c917
DTITLE=Various Artist - The Horror Films Collection
DYEAR=1995
DGENRE=Soundtrack
TTITLE0=Marco Werba - Dario's Theme
TTITLE1=Bruno Nicolai - Il Trono di Fuoco - Occhi fiammanti
TTITLE2=Bruno Nicolai - Il Trono di Fuoco - Sangue e amore
TTITLE3=Bruno Nicolai - Il Trono di Fuoco - La vendetta
TTITLE4=Bruno Nicolai - Il Trono di Fuoco - Il giudice sanguinario
TTITLE5=Bruno Nicolai - Il Trono di Fuoco - Giustizia sia fatta!
TTITLE6=Bruno Nicolai - Il Trono di Fuoco - M10bis
TTITLE7=Bruno Nicolai - Il Trono di Fuoco - M3bis
TTITLE8=Giorgio Gaslini - La Notte dei Diavoli (suite)
TTITLE9=Vince Tempera - 7 Note in Nero - 7 Note
TTITLE10=Vince Tempera - 7 Note in Nero - Tracce sul muro
TTITLE11=Carlo Savina - La Cripta e l'Incubo - La maledizione di Karnstein
TTITLE12=Carlo Savina - La Cripta e l'Incubo - Il ritratto di Sheena
TTITLE13=Carlo Savina - La Cripta e l'Incubo - Cena al castello
TTITLE14=Carlo Savina - La Cripta e l'Incubo - L'incubo nella cripta
TTITLE15=Carlo Savina - La Cripta e l'Incubo - Laura posseduta
TTITLE16=Carlo Savina - La Cripta e l'Incubo - Il presagio
TTITLE17=Carlo Savina - La Cripta e l'Incubo - Finale
TTITLE18=Giorgio Gaslini - Profondo Rosso 20th Anniversary Special Suite
TTITLE19=Gianni Ferrio - L'Isola Misteriosa e il Capitano Nemo
TTITLE20=Piero Piccioni - Il Monaco (suite)
TTITLE21=Gino Marinuzzi Jr. - Terrore nello Spazio (suite)
TTITLE22=Riz Ortolani - Passi di morte perduti nel buio (Main Title)
EXTD=
EXTT0=
EXTT1=
EXTT2=
EXTT3=
EXTT4=
EXTT5=
EXTT6=
EXTT7=
EXTT8=
EXTT9=
EXTT10=
EXTT11=
EXTT12=
EXTT13=
EXTT14=
EXTT15=
EXTT16=
EXTT17=
EXTT18=
EXTT19=
EXTT20=
EXTT21=
EXTT22=
PLAYORDER=
